<?xml version="1.0" encoding="utf-8"?>
<!-- Uploaded to: SVG Repo, www.svgrepo.com, Generator: SVG Repo Mixer Tools -->
<svg fill="rgba(67,65,194,0.685)" width="800px" height="800px" viewBox="0 0 32 32" version="1.1" xmlns="http://www.w3.org/2000/svg">
<title>eyeball</title>
<path d="M23.511 2.658c-7.288-4.208-16.607-1.711-20.815 5.577s-1.711 16.607 5.577 20.815 16.607 1.711 20.815-5.577 1.711-16.607-5.577-20.815zM27.194 22.476c-2.75 4.761-8.44 6.624-12.709 4.161s-5.5-8.32-2.75-13.081 8.44-6.624 12.709-4.161 5.5 8.32 2.75 13.081zM23.65 14.201c-2.242-1.29-5.23-0.315-6.674 2.18s-0.798 5.563 1.444 6.853c2.242 1.291 5.23 0.315 6.674-2.18s0.798-5.563-1.444-6.853zM19.413 18.823c-1.025 0-1.857-0.831-1.857-1.856s0.831-1.856 1.857-1.856 1.857 0.831 1.857 1.856c0 1.025-0.831 1.856-1.857 1.856z"></path>
</svg>